<?xml version="1.0" encoding="UTF-8" standalone="no"?>
<!DOCTYPE svg PUBLIC "-//W3C//DTD SVG 1.1//EN"
 "http://www.w3.org/Graphics/SVG/1.1/DTD/svg11.dtd">
<!-- Generated by graphviz version 12.2.0 (20241103.1931)
 -->
<!-- Pages: 1 -->
<svg width="272pt" height="337pt"
 viewBox="0.00 0.00 272.00 337.00" xmlns="http://www.w3.org/2000/svg" xmlns:xlink="http://www.w3.org/1999/xlink">
<g id="graph0" class="graph" transform="scale(1 1) rotate(0) translate(4 333)">
<polygon fill="white" stroke="none" points="-4,4 -4,-333 268,-333 268,4 -4,4"/>
<!-- datasets -->
<g id="node1" class="node">
<title>datasets</title>
<g id="a_node1"><a xlink:href="https://anemoi-datasets.readthedocs.io/en/latest/" xlink:title="\N" target="_blank">
<polygon fill="lightblue" stroke="lightblue" points="110,-146.5 110,-182.5 164,-182.5 164,-146.5 110,-146.5"/>
<text text-anchor="middle" x="136.75" y="-161" font-family="Arial" font-size="10.00">datasets</text>
</a>
</g>
</g>
<!-- transform -->
<g id="node7" class="node">
<title>transform</title>
<g id="a_node7"><a xlink:href="https://anemoi-transform.readthedocs.io/en/latest/" xlink:title="\N" target="_blank">
<polygon fill="lightblue" stroke="lightblue" points="94.38,-219.5 94.38,-255.5 151.62,-255.5 151.62,-219.5 94.38,-219.5"/>
<text text-anchor="middle" x="123" y="-234" font-family="Arial" font-size="10.00">transform</text>
</a>
</g>
</g>
<!-- datasets&#45;&gt;transform -->
<g id="edge6" class="edge">
<title>datasets&#45;&gt;transform</title>
<path fill="none" stroke="black" d="M133.61,-182.69C132.1,-190.36 130.27,-199.61 128.57,-208.26"/>
<polygon fill="black" stroke="black" points="125.15,-207.5 126.65,-217.99 132.02,-208.85 125.15,-207.5"/>
</g>
<!-- graphs -->
<g id="node2" class="node">
<title>graphs</title>
<g id="a_node2"><a xlink:href="https://anemoi-graphs.readthedocs.io/en/latest/" xlink:title="\N" target="_blank">
<polygon fill="lightblue" stroke="lightblue" points="138,-73.5 138,-109.5 192,-109.5 192,-73.5 138,-73.5"/>
<text text-anchor="middle" x="164.62" y="-88" font-family="Arial" font-size="10.00">graphs</text>
</a>
</g>
</g>
<!-- graphs&#45;&gt;datasets -->
<g id="edge1" class="edge">
<title>graphs&#45;&gt;datasets</title>
<path fill="none" stroke="black" stroke-dasharray="5,2" d="M158.22,-109.69C155.13,-117.54 151.38,-127.03 147.91,-135.84"/>
<polygon fill="black" stroke="black" points="144.68,-134.48 144.27,-145.06 151.2,-137.04 144.68,-134.48"/>
</g>
<!-- inference -->
<g id="node3" class="node">
<title>inference</title>
<g id="a_node3"><a xlink:href="https://anemoi-inference.readthedocs.io/en/latest/" xlink:title="\N" target="_blank">
<polygon fill="lightblue" stroke="lightblue" points="26.12,-73.5 26.12,-109.5 81.88,-109.5 81.88,-73.5 26.12,-73.5"/>
<text text-anchor="middle" x="54" y="-88" font-family="Arial" font-size="10.00">inference</text>
</a>
</g>
</g>
<!-- inference&#45;&gt;datasets -->
<g id="edge2" class="edge">
<title>inference&#45;&gt;datasets</title>
<path fill="none" stroke="black" stroke-dasharray="5,2" d="M74.09,-109.69C84.31,-118.43 96.92,-129.22 108.16,-138.83"/>
<polygon fill="black" stroke="black" points="105.78,-141.4 115.66,-145.24 110.33,-136.08 105.78,-141.4"/>
</g>
<!-- models -->
<g id="node4" class="node">
<title>models</title>
<g id="a_node4"><a xlink:href="https://anemoi-models.readthedocs.io/en/latest/" xlink:title="\N" target="_blank">
<polygon fill="lightblue" stroke="lightblue" points="0,-146.5 0,-182.5 54,-182.5 54,-146.5 0,-146.5"/>
<text text-anchor="middle" x="26.75" y="-161" font-family="Arial" font-size="10.00">models</text>
</a>
</g>
</g>
<!-- inference&#45;&gt;models -->
<g id="edge3" class="edge">
<title>inference&#45;&gt;models</title>
<path fill="none" stroke="black" d="M47.46,-109.69C44.48,-117.54 40.87,-127.03 37.52,-135.84"/>
<polygon fill="black" stroke="black" points="34.3,-134.47 34.01,-145.06 40.84,-136.95 34.3,-134.47"/>
</g>
<!-- inference&#45;&gt;transform -->
<g id="edge4" class="edge">
<title>inference&#45;&gt;transform</title>
<path fill="none" stroke="black" d="M62.32,-109.87C74.08,-134.41 95.69,-179.5 109.69,-208.72"/>
<polygon fill="black" stroke="black" points="106.52,-210.2 113.99,-217.7 112.83,-207.17 106.52,-210.2"/>
</g>
<!-- utils -->
<g id="node8" class="node">
<title>utils</title>
<g id="a_node8"><a xlink:href="https://anemoi-utils.readthedocs.io/en/latest/" xlink:title="\N" target="_blank">
<polygon fill="lightblue" stroke="lightblue" points="96,-292.5 96,-328.5 150,-328.5 150,-292.5 96,-292.5"/>
<text text-anchor="middle" x="123" y="-307" font-family="Arial" font-size="10.00">utils</text>
</a>
</g>
</g>
<!-- models&#45;&gt;utils -->
<g id="edge5" class="edge">
<title>models&#45;&gt;utils</title>
<path fill="none" stroke="black" d="M38.18,-182.95C55.04,-209.25 85,-256 85,-256 85,-256 94.68,-269.62 104.26,-283.12"/>
<polygon fill="black" stroke="black" points="101.25,-284.92 109.89,-291.04 106.95,-280.86 101.25,-284.92"/>
</g>
<!-- registry -->
<g id="node5" class="node">
<title>registry</title>
<g id="a_node5"><a xlink:href="https://anemoi-registry.readthedocs.io/en/latest/" xlink:title="\N" target="_blank">
<polygon fill="lightblue" stroke="lightblue" points="210,-73.5 210,-109.5 264,-109.5 264,-73.5 210,-73.5"/>
<text text-anchor="middle" x="236.62" y="-88" font-family="Arial" font-size="10.00">registry</text>
</a>
</g>
</g>
<!-- registry&#45;&gt;datasets -->
<g id="edge7" class="edge">
<title>registry&#45;&gt;datasets</title>
<path fill="none" stroke="black" stroke-dasharray="5,2" d="M212.54,-109.87C199.95,-118.81 184.4,-129.84 170.69,-139.58"/>
<polygon fill="black" stroke="black" points="168.92,-136.55 162.79,-145.19 172.97,-142.25 168.92,-136.55"/>
</g>
<!-- registry&#45;&gt;utils -->
<g id="edge8" class="edge">
<title>registry&#45;&gt;utils</title>
<path fill="none" stroke="black" d="M228.87,-110C209.26,-152.18 161,-256 161,-256 161,-256 151.32,-269.62 141.74,-283.12"/>
<polygon fill="black" stroke="black" points="139.05,-280.86 136.11,-291.04 144.75,-284.92 139.05,-280.86"/>
</g>
<!-- training -->
<g id="node6" class="node">
<title>training</title>
<g id="a_node6"><a xlink:href="https://anemoi-training.readthedocs.io/en/latest/" xlink:title="\N" target="_blank">
<polygon fill="lightblue" stroke="lightblue" points="83,-0.5 83,-36.5 137,-36.5 137,-0.5 83,-0.5"/>
<text text-anchor="middle" x="109.75" y="-15" font-family="Arial" font-size="10.00">training</text>
</a>
</g>
</g>
<!-- training&#45;&gt;datasets -->
<g id="edge9" class="edge">
<title>training&#45;&gt;datasets</title>
<path fill="none" stroke="black" d="M113.26,-36.87C117.82,-61.2 126.16,-105.7 131.65,-134.94"/>
<polygon fill="black" stroke="black" points="128.17,-135.4 133.45,-144.58 135.05,-134.11 128.17,-135.4"/>
</g>
<!-- training&#45;&gt;graphs -->
<g id="edge10" class="edge">
<title>training&#45;&gt;graphs</title>
<path fill="none" stroke="black" d="M123.31,-36.69C129.8,-45.06 137.73,-55.3 144.93,-64.6"/>
<polygon fill="black" stroke="black" points="141.99,-66.51 150.88,-72.27 147.52,-62.23 141.99,-66.51"/>
</g>
<!-- training&#45;&gt;models -->
<g id="edge12" class="edge">
<title>training&#45;&gt;models</title>
<path fill="none" stroke="black" d="M82.6,-35.26C55.17,-51.04 17,-73 17,-73 17,-73 17,-110 17,-110 17,-110 19.31,-122.35 21.71,-135.18"/>
<polygon fill="black" stroke="black" points="18.22,-135.6 23.5,-144.79 25.11,-134.32 18.22,-135.6"/>
</g>
<!-- transform&#45;&gt;utils -->
<g id="edge11" class="edge">
<title>transform&#45;&gt;utils</title>
<path fill="none" stroke="black" d="M123,-255.69C123,-263.27 123,-272.4 123,-280.96"/>
<polygon fill="black" stroke="black" points="119.5,-280.96 123,-290.96 126.5,-280.96 119.5,-280.96"/>
</g>
</g>
</svg>
