<?xml version="1.0" encoding="UTF-8" standalone="no"?>
<!DOCTYPE svg PUBLIC "-//W3C//DTD SVG 1.1//EN"
 "http://www.w3.org/Graphics/SVG/1.1/DTD/svg11.dtd">
<!-- Generated by graphviz version 10.0.1 (20240210.2158)
 -->
<!-- Pages: 1 -->
<svg width="292pt" height="264pt"
 viewBox="0.00 0.00 292.00 264.00" xmlns="http://www.w3.org/2000/svg" xmlns:xlink="http://www.w3.org/1999/xlink">
<g id="graph0" class="graph" transform="scale(1 1) rotate(0) translate(4 260)">
<polygon fill="white" stroke="none" points="-4,4 -4,-260 288,-260 288,4 -4,4"/>
<!-- datasets -->
<g id="node1" class="node">
<title>datasets</title>
<g id="a_node1"><a xlink:href="https://anemoi-datasets.readthedocs.io/en/latest/" xlink:title="\N" target="_blank">
<polygon fill="lightblue" stroke="lightblue" points="148,-146.5 148,-182.5 202,-182.5 202,-146.5 148,-146.5"/>
<text text-anchor="middle" x="174.75" y="-161" font-family="Arial" font-size="10.00">datasets</text>
</a>
</g>
</g>
<!-- utils -->
<g id="node8" class="node">
<title>utils</title>
<g id="a_node8"><a xlink:href="https://anemoi-utils.readthedocs.io/en/latest/" xlink:title="\N" target="_blank">
<polygon fill="lightblue" stroke="lightblue" points="111,-219.5 111,-255.5 165,-255.5 165,-219.5 111,-219.5"/>
<text text-anchor="middle" x="138" y="-234" font-family="Arial" font-size="10.00">utils</text>
</a>
</g>
</g>
<!-- datasets&#45;&gt;utils -->
<g id="edge1" class="edge">
<title>datasets&#45;&gt;utils</title>
<path fill="none" stroke="black" d="M166.04,-182.69C161.86,-190.71 156.79,-200.45 152.11,-209.43"/>
<polygon fill="black" stroke="black" points="149.09,-207.64 147.57,-218.13 155.3,-210.88 149.09,-207.64"/>
</g>
<!-- graphs -->
<g id="node2" class="node">
<title>graphs</title>
<g id="a_node2"><a xlink:href="https://anemoi-graphs.readthedocs.io/en/latest/" xlink:title="\N" target="_blank">
<polygon fill="lightblue" stroke="lightblue" points="158,-73.5 158,-109.5 212,-109.5 212,-73.5 158,-73.5"/>
<text text-anchor="middle" x="184.62" y="-88" font-family="Arial" font-size="10.00">graphs</text>
</a>
</g>
</g>
<!-- graphs&#45;&gt;datasets -->
<g id="edge2" class="edge">
<title>graphs&#45;&gt;datasets</title>
<path fill="none" stroke="black" stroke-dasharray="5,2" d="M182.58,-109.69C181.5,-117.36 180.2,-126.61 178.98,-135.26"/>
<polygon fill="black" stroke="black" points="175.54,-134.58 177.61,-144.97 182.47,-135.56 175.54,-134.58"/>
</g>
<!-- inference -->
<g id="node3" class="node">
<title>inference</title>
<g id="a_node3"><a xlink:href="https://anemoi-inference.readthedocs.io/en/latest/" xlink:title="\N" target="_blank">
<polygon fill="lightblue" stroke="lightblue" points="46.12,-73.5 46.12,-109.5 101.88,-109.5 101.88,-73.5 46.12,-73.5"/>
<text text-anchor="middle" x="74" y="-88" font-family="Arial" font-size="10.00">inference</text>
</a>
</g>
</g>
<!-- inference&#45;&gt;datasets -->
<g id="edge3" class="edge">
<title>inference&#45;&gt;datasets</title>
<path fill="none" stroke="black" stroke-dasharray="5,2" d="M98.71,-109.87C111.42,-118.81 127.12,-129.84 140.97,-139.58"/>
<polygon fill="black" stroke="black" points="138.77,-142.31 148.96,-145.19 142.79,-136.58 138.77,-142.31"/>
</g>
<!-- models -->
<g id="node4" class="node">
<title>models</title>
<g id="a_node4"><a xlink:href="https://anemoi-models.readthedocs.io/en/latest/" xlink:title="\N" target="_blank">
<polygon fill="lightblue" stroke="lightblue" points="0,-146.5 0,-182.5 54,-182.5 54,-146.5 0,-146.5"/>
<text text-anchor="middle" x="26.75" y="-161" font-family="Arial" font-size="10.00">models</text>
</a>
</g>
</g>
<!-- inference&#45;&gt;models -->
<g id="edge4" class="edge">
<title>inference&#45;&gt;models</title>
<path fill="none" stroke="black" d="M62.62,-109.69C57.2,-117.88 50.58,-127.88 44.53,-137.02"/>
<polygon fill="black" stroke="black" points="41.71,-134.94 39.11,-145.21 47.55,-138.8 41.71,-134.94"/>
</g>
<!-- transform -->
<g id="node7" class="node">
<title>transform</title>
<g id="a_node7"><a xlink:href="https://anemoi-transform.readthedocs.io/en/latest/" xlink:title="\N" target="_blank">
<polygon fill="lightblue" stroke="lightblue" points="72.38,-146.5 72.38,-182.5 129.62,-182.5 129.62,-146.5 72.38,-146.5"/>
<text text-anchor="middle" x="101" y="-161" font-family="Arial" font-size="10.00">transform</text>
</a>
</g>
</g>
<!-- inference&#45;&gt;transform -->
<g id="edge5" class="edge">
<title>inference&#45;&gt;transform</title>
<path fill="none" stroke="black" d="M80.54,-109.69C83.52,-117.54 87.13,-127.03 90.48,-135.84"/>
<polygon fill="black" stroke="black" points="87.16,-136.95 93.99,-145.06 93.7,-134.47 87.16,-136.95"/>
</g>
<!-- models&#45;&gt;utils -->
<g id="edge6" class="edge">
<title>models&#45;&gt;utils</title>
<path fill="none" stroke="black" d="M54.15,-182.87C68.4,-191.98 86.05,-203.27 101.47,-213.14"/>
<polygon fill="black" stroke="black" points="99.16,-215.81 109.47,-218.25 102.93,-209.91 99.16,-215.81"/>
</g>
<!-- registry -->
<g id="node5" class="node">
<title>registry</title>
<g id="a_node5"><a xlink:href="https://anemoi-registry.readthedocs.io/en/latest/" xlink:title="\N" target="_blank">
<polygon fill="lightblue" stroke="lightblue" points="230,-73.5 230,-109.5 284,-109.5 284,-73.5 230,-73.5"/>
<text text-anchor="middle" x="256.62" y="-88" font-family="Arial" font-size="10.00">registry</text>
</a>
</g>
</g>
<!-- registry&#45;&gt;datasets -->
<g id="edge7" class="edge">
<title>registry&#45;&gt;datasets</title>
<path fill="none" stroke="black" stroke-dasharray="5,2" d="M237.15,-109.69C227.05,-118.43 214.6,-129.22 203.49,-138.83"/>
<polygon fill="black" stroke="black" points="201.36,-136.04 196.1,-145.23 205.95,-141.33 201.36,-136.04"/>
</g>
<!-- registry&#45;&gt;utils -->
<g id="edge8" class="edge">
<title>registry&#45;&gt;utils</title>
<path fill="none" stroke="black" d="M248.13,-109.95C234.76,-136.25 211,-183 211,-183 211,-183 190.01,-198.38 170.55,-212.65"/>
<polygon fill="black" stroke="black" points="168.72,-209.65 162.72,-218.38 172.86,-215.29 168.72,-209.65"/>
</g>
<!-- training -->
<g id="node6" class="node">
<title>training</title>
<g id="a_node6"><a xlink:href="https://anemoi-training.readthedocs.io/en/latest/" xlink:title="\N" target="_blank">
<polygon fill="lightblue" stroke="lightblue" points="103,-0.5 103,-36.5 157,-36.5 157,-0.5 103,-0.5"/>
<text text-anchor="middle" x="129.75" y="-15" font-family="Arial" font-size="10.00">training</text>
</a>
</g>
</g>
<!-- training&#45;&gt;datasets -->
<g id="edge9" class="edge">
<title>training&#45;&gt;datasets</title>
<path fill="none" stroke="black" d="M133.66,-36.95C139.18,-63.25 149,-110 149,-110 149,-110 155.24,-122.85 161.61,-135.95"/>
<polygon fill="black" stroke="black" points="158.45,-137.45 165.97,-144.92 164.75,-134.39 158.45,-137.45"/>
</g>
<!-- training&#45;&gt;graphs -->
<g id="edge10" class="edge">
<title>training&#45;&gt;graphs</title>
<path fill="none" stroke="black" d="M143.31,-36.69C149.8,-45.06 157.73,-55.3 164.93,-64.6"/>
<polygon fill="black" stroke="black" points="161.99,-66.51 170.88,-72.27 167.52,-62.23 161.99,-66.51"/>
</g>
<!-- training&#45;&gt;models -->
<g id="edge12" class="edge">
<title>training&#45;&gt;models</title>
<path fill="none" stroke="black" d="M102.6,-35.26C75.17,-51.04 37,-73 37,-73 37,-73 33.12,-108.16 30.19,-134.65"/>
<polygon fill="black" stroke="black" points="26.71,-134.22 29.09,-144.55 33.67,-134.99 26.71,-134.22"/>
</g>
<!-- transform&#45;&gt;utils -->
<g id="edge11" class="edge">
<title>transform&#45;&gt;utils</title>
<path fill="none" stroke="black" d="M109.96,-182.69C114.14,-190.71 119.21,-200.45 123.89,-209.43"/>
<polygon fill="black" stroke="black" points="120.7,-210.88 128.43,-218.13 126.91,-207.64 120.7,-210.88"/>
</g>
</g>
</svg>
