<?xml version="1.0" encoding="UTF-8" standalone="no"?>
<!DOCTYPE svg PUBLIC "-//W3C//DTD SVG 1.1//EN"
 "http://www.w3.org/Graphics/SVG/1.1/DTD/svg11.dtd">
<!-- Generated by graphviz version 12.2.0 (20241103.1931)
 -->
<!-- Pages: 1 -->
<svg width="299pt" height="337pt"
 viewBox="0.00 0.00 299.00 337.00" xmlns="http://www.w3.org/2000/svg" xmlns:xlink="http://www.w3.org/1999/xlink">
<g id="graph0" class="graph" transform="scale(1 1) rotate(0) translate(4 333)">
<polygon fill="white" stroke="none" points="-4,4 -4,-333 295,-333 295,4 -4,4"/>
<!-- datasets -->
<g id="node1" class="node">
<title>datasets</title>
<g id="a_node1"><a xlink:href="https://anemoi-datasets.readthedocs.io/en/latest/" xlink:title="\N" target="_blank">
<polygon fill="lightblue" stroke="lightblue" points="111,-146.5 111,-182.5 165,-182.5 165,-146.5 111,-146.5"/>
<text text-anchor="middle" x="137.75" y="-161" font-family="Arial" font-size="10.00">datasets</text>
</a>
</g>
</g>
<!-- transform -->
<g id="node7" class="node">
<title>transform</title>
<g id="a_node7"><a xlink:href="https://anemoi-transform.readthedocs.io/en/latest/" xlink:title="\N" target="_blank">
<polygon fill="lightblue" stroke="lightblue" points="55.38,-219.5 55.38,-255.5 112.62,-255.5 112.62,-219.5 55.38,-219.5"/>
<text text-anchor="middle" x="84" y="-234" font-family="Arial" font-size="10.00">transform</text>
</a>
</g>
</g>
<!-- datasets&#45;&gt;transform -->
<g id="edge7" class="edge">
<title>datasets&#45;&gt;transform</title>
<path fill="none" stroke="black" d="M124.93,-182.69C118.56,-191.06 110.77,-201.3 103.7,-210.6"/>
<polygon fill="black" stroke="black" points="101.14,-208.19 97.87,-218.27 106.71,-212.43 101.14,-208.19"/>
</g>
<!-- utils -->
<g id="node8" class="node">
<title>utils</title>
<g id="a_node8"><a xlink:href="https://anemoi-utils.readthedocs.io/en/latest/" xlink:title="\N" target="_blank">
<polygon fill="lightblue" stroke="lightblue" points="85,-292.5 85,-328.5 139,-328.5 139,-292.5 85,-292.5"/>
<text text-anchor="middle" x="112" y="-307" font-family="Arial" font-size="10.00">utils</text>
</a>
</g>
</g>
<!-- datasets&#45;&gt;utils -->
<g id="edge1" class="edge">
<title>datasets&#45;&gt;utils</title>
<path fill="none" stroke="black" d="M134.92,-182.95C130.27,-209.25 122,-256 122,-256 122,-256 119.69,-268.35 117.29,-281.18"/>
<polygon fill="black" stroke="black" points="113.89,-280.32 115.5,-290.79 120.78,-281.6 113.89,-280.32"/>
</g>
<!-- graphs -->
<g id="node2" class="node">
<title>graphs</title>
<g id="a_node2"><a xlink:href="https://anemoi-graphs.readthedocs.io/en/latest/" xlink:title="\N" target="_blank">
<polygon fill="lightblue" stroke="lightblue" points="165,-73.5 165,-109.5 219,-109.5 219,-73.5 165,-73.5"/>
<text text-anchor="middle" x="191.62" y="-88" font-family="Arial" font-size="10.00">graphs</text>
</a>
</g>
</g>
<!-- graphs&#45;&gt;datasets -->
<g id="edge2" class="edge">
<title>graphs&#45;&gt;datasets</title>
<path fill="none" stroke="black" stroke-dasharray="5,2" d="M178.93,-109.69C172.56,-118.06 164.77,-128.3 157.7,-137.6"/>
<polygon fill="black" stroke="black" points="155.14,-135.19 151.87,-145.27 160.71,-139.43 155.14,-135.19"/>
</g>
<!-- inference -->
<g id="node3" class="node">
<title>inference</title>
<g id="a_node3"><a xlink:href="https://anemoi-inference.readthedocs.io/en/latest/" xlink:title="\N" target="_blank">
<polygon fill="lightblue" stroke="lightblue" points="53.12,-73.5 53.12,-109.5 108.88,-109.5 108.88,-73.5 53.12,-73.5"/>
<text text-anchor="middle" x="81" y="-88" font-family="Arial" font-size="10.00">inference</text>
</a>
</g>
</g>
<!-- inference&#45;&gt;datasets -->
<g id="edge3" class="edge">
<title>inference&#45;&gt;datasets</title>
<path fill="none" stroke="black" stroke-dasharray="5,2" d="M94.8,-109.69C101.52,-118.06 109.74,-128.3 117.2,-137.6"/>
<polygon fill="black" stroke="black" points="114.39,-139.68 123.38,-145.29 119.85,-135.3 114.39,-139.68"/>
</g>
<!-- models -->
<g id="node4" class="node">
<title>models</title>
<g id="a_node4"><a xlink:href="https://anemoi-models.readthedocs.io/en/latest/" xlink:title="\N" target="_blank">
<polygon fill="lightblue" stroke="lightblue" points="0,-146.5 0,-182.5 54,-182.5 54,-146.5 0,-146.5"/>
<text text-anchor="middle" x="26.75" y="-161" font-family="Arial" font-size="10.00">models</text>
</a>
</g>
</g>
<!-- inference&#45;&gt;models -->
<g id="edge4" class="edge">
<title>inference&#45;&gt;models</title>
<path fill="none" stroke="black" d="M67.93,-109.69C61.56,-118.06 53.77,-128.3 46.7,-137.6"/>
<polygon fill="black" stroke="black" points="44.14,-135.19 40.87,-145.27 49.71,-139.43 44.14,-135.19"/>
</g>
<!-- inference&#45;&gt;transform -->
<g id="edge5" class="edge">
<title>inference&#45;&gt;transform</title>
<path fill="none" stroke="black" d="M81.36,-109.87C81.87,-134.2 82.8,-178.7 83.41,-207.94"/>
<polygon fill="black" stroke="black" points="79.9,-207.63 83.61,-217.56 86.9,-207.48 79.9,-207.63"/>
</g>
<!-- models&#45;&gt;utils -->
<g id="edge6" class="edge">
<title>models&#45;&gt;utils</title>
<path fill="none" stroke="black" d="M30.66,-182.95C36.18,-209.25 46,-256 46,-256 46,-256 64.46,-270.97 81.86,-285.07"/>
<polygon fill="black" stroke="black" points="79.61,-287.75 89.58,-291.32 84.01,-282.31 79.61,-287.75"/>
</g>
<!-- registry -->
<g id="node5" class="node">
<title>registry</title>
<g id="a_node5"><a xlink:href="https://anemoi-registry.readthedocs.io/en/latest/" xlink:title="\N" target="_blank">
<polygon fill="lightblue" stroke="lightblue" points="237,-73.5 237,-109.5 291,-109.5 291,-73.5 237,-73.5"/>
<text text-anchor="middle" x="263.62" y="-88" font-family="Arial" font-size="10.00">registry</text>
</a>
</g>
</g>
<!-- registry&#45;&gt;datasets -->
<g id="edge8" class="edge">
<title>registry&#45;&gt;datasets</title>
<path fill="none" stroke="black" stroke-dasharray="5,2" d="M236.66,-107.91C218.66,-118.05 194.88,-131.45 175.17,-142.56"/>
<polygon fill="black" stroke="black" points="173.6,-139.42 166.61,-147.38 177.04,-145.52 173.6,-139.42"/>
</g>
<!-- registry&#45;&gt;utils -->
<g id="edge9" class="edge">
<title>registry&#45;&gt;utils</title>
<path fill="none" stroke="black" d="M251.82,-109.89C225.3,-147.75 162.21,-237.81 130.65,-282.87"/>
<polygon fill="black" stroke="black" points="127.98,-280.59 125.11,-290.79 133.71,-284.6 127.98,-280.59"/>
</g>
<!-- training -->
<g id="node6" class="node">
<title>training</title>
<g id="a_node6"><a xlink:href="https://anemoi-training.readthedocs.io/en/latest/" xlink:title="\N" target="_blank">
<polygon fill="lightblue" stroke="lightblue" points="110,-0.5 110,-36.5 164,-36.5 164,-0.5 110,-0.5"/>
<text text-anchor="middle" x="136.75" y="-15" font-family="Arial" font-size="10.00">training</text>
</a>
</g>
</g>
<!-- training&#45;&gt;datasets -->
<g id="edge10" class="edge">
<title>training&#45;&gt;datasets</title>
<path fill="none" stroke="black" d="M137.12,-36.87C137.29,-61.2 137.6,-105.7 137.8,-134.94"/>
<polygon fill="black" stroke="black" points="134.3,-134.58 137.87,-144.56 141.3,-134.53 134.3,-134.58"/>
</g>
<!-- training&#45;&gt;graphs -->
<g id="edge11" class="edge">
<title>training&#45;&gt;graphs</title>
<path fill="none" stroke="black" d="M150.31,-36.69C156.8,-45.06 164.73,-55.3 171.93,-64.6"/>
<polygon fill="black" stroke="black" points="168.99,-66.51 177.88,-72.27 174.52,-62.23 168.99,-66.51"/>
</g>
<!-- training&#45;&gt;models -->
<g id="edge13" class="edge">
<title>training&#45;&gt;models</title>
<path fill="none" stroke="black" d="M109.6,-35.26C82.17,-51.04 44,-73 44,-73 44,-73 37.34,-108.48 32.35,-135"/>
<polygon fill="black" stroke="black" points="28.96,-134.09 30.56,-144.56 35.84,-135.38 28.96,-134.09"/>
</g>
<!-- transform&#45;&gt;utils -->
<g id="edge12" class="edge">
<title>transform&#45;&gt;utils</title>
<path fill="none" stroke="black" d="M90.78,-255.69C93.87,-263.54 97.62,-273.03 101.09,-281.84"/>
<polygon fill="black" stroke="black" points="97.8,-283.04 104.73,-291.06 104.32,-280.48 97.8,-283.04"/>
</g>
</g>
</svg>
